<svg xmlns="http://www.w3.org/2000/svg" xmlns:xlink="http://www.w3.org/1999/xlink" viewBox="0 0 48.92 39.53"><defs><style>.cls-1{fill:url(#Nueva_muestra_de_degradado_1);}.cls-2{fill:url(#Nueva_muestra_de_degradado_1-2);}.cls-3{fill:url(#Nueva_muestra_de_degradado_1-3);}.cls-4{fill:url(#Nueva_muestra_de_degradado_1-4);}.cls-5{fill:url(#Nueva_muestra_de_degradado_1-5);}.cls-6{fill:url(#Nueva_muestra_de_degradado_1-6);}.cls-7{fill:url(#Nueva_muestra_de_degradado_1-7);}.cls-8{fill:url(#Nueva_muestra_de_degradado_1-8);}.cls-9{fill:url(#Nueva_muestra_de_degradado_1-9);}.cls-10{fill:url(#Nueva_muestra_de_degradado_1-10);}.cls-11{fill:url(#Nueva_muestra_de_degradado_1-11);}.cls-12{fill:url(#Nueva_muestra_de_degradado_1-12);}.cls-13{fill:url(#Nueva_muestra_de_degradado_1-13);}.cls-14{fill:url(#Nueva_muestra_de_degradado_1-14);}.cls-15{fill:url(#Nueva_muestra_de_degradado_1-15);}.cls-16{fill:url(#Nueva_muestra_de_degradado_1-16);}.cls-17{fill:url(#Nueva_muestra_de_degradado_1-17);}.cls-18{fill:url(#Nueva_muestra_de_degradado_1-18);}.cls-19{fill:url(#Nueva_muestra_de_degradado_1-19);}.cls-20{fill:url(#Nueva_muestra_de_degradado_1-20);}.cls-21{fill:url(#Nueva_muestra_de_degradado_1-21);}.cls-22{fill:url(#Nueva_muestra_de_degradado_1-22);}</style><linearGradient id="Nueva_muestra_de_degradado_1" x1="-15.07" y1="10.72" x2="65.57" y2="11.44" gradientUnits="userSpaceOnUse"><stop offset="0" stop-color="#0f9"/><stop offset="0.1" stop-color="#01f99b"/><stop offset="0.24" stop-color="#05e7a2"/><stop offset="0.39" stop-color="#0acbae"/><stop offset="0.57" stop-color="#13a2be"/><stop offset="0.75" stop-color="#1d6fd3"/><stop offset="0.94" stop-color="#2931eb"/><stop offset="1" stop-color="#2d1ef3"/></linearGradient><linearGradient id="Nueva_muestra_de_degradado_1-2" x1="-15.23" y1="29.21" x2="65.41" y2="29.93" xlink:href="#Nueva_muestra_de_degradado_1"/><linearGradient id="Nueva_muestra_de_degradado_1-3" x1="-15.06" y1="10.6" x2="65.58" y2="11.32" xlink:href="#Nueva_muestra_de_degradado_1"/><linearGradient id="Nueva_muestra_de_degradado_1-4" x1="-15.06" y1="10.52" x2="65.58" y2="11.24" xlink:href="#Nueva_muestra_de_degradado_1"/><linearGradient id="Nueva_muestra_de_degradado_1-5" x1="-15.06" y1="10.44" x2="65.58" y2="11.16" xlink:href="#Nueva_muestra_de_degradado_1"/><linearGradient id="Nueva_muestra_de_degradado_1-6" x1="-15.06" y1="10.36" x2="65.58" y2="11.08" xlink:href="#Nueva_muestra_de_degradado_1"/><linearGradient id="Nueva_muestra_de_degradado_1-7" x1="-15.23" y1="29.5" x2="65.41" y2="30.22" xlink:href="#Nueva_muestra_de_degradado_1"/><linearGradient id="Nueva_muestra_de_degradado_1-8" x1="-15.23" y1="29.5" x2="65.41" y2="30.22" xlink:href="#Nueva_muestra_de_degradado_1"/><linearGradient id="Nueva_muestra_de_degradado_1-9" x1="-15.21" y1="27.46" x2="65.43" y2="28.18" xlink:href="#Nueva_muestra_de_degradado_1"/><linearGradient id="Nueva_muestra_de_degradado_1-10" x1="-15.25" y1="31.26" x2="65.39" y2="31.98" xlink:href="#Nueva_muestra_de_degradado_1"/><linearGradient id="Nueva_muestra_de_degradado_1-11" x1="-15.23" y1="29.35" x2="65.41" y2="30.07" xlink:href="#Nueva_muestra_de_degradado_1"/><linearGradient id="Nueva_muestra_de_degradado_1-12" x1="-15.23" y1="29.38" x2="65.41" y2="30.1" xlink:href="#Nueva_muestra_de_degradado_1"/><linearGradient id="Nueva_muestra_de_degradado_1-13" x1="-15.24" y1="29.92" x2="65.4" y2="30.64" xlink:href="#Nueva_muestra_de_degradado_1"/><linearGradient id="Nueva_muestra_de_degradado_1-14" x1="-15.24" y1="29.89" x2="65.4" y2="30.61" xlink:href="#Nueva_muestra_de_degradado_1"/><linearGradient id="Nueva_muestra_de_degradado_1-15" x1="-15.26" y1="33.07" x2="65.38" y2="33.79" xlink:href="#Nueva_muestra_de_degradado_1"/><linearGradient id="Nueva_muestra_de_degradado_1-16" x1="-15.31" y1="38.46" x2="65.33" y2="39.18" xlink:href="#Nueva_muestra_de_degradado_1"/><linearGradient id="Nueva_muestra_de_degradado_1-17" x1="-15.31" y1="38.27" x2="65.33" y2="38.99" xlink:href="#Nueva_muestra_de_degradado_1"/><linearGradient id="Nueva_muestra_de_degradado_1-18" x1="-15.26" y1="32.59" x2="65.38" y2="33.31" xlink:href="#Nueva_muestra_de_degradado_1"/><linearGradient id="Nueva_muestra_de_degradado_1-19" x1="-14.97" y1="0.62" x2="65.67" y2="1.34" xlink:href="#Nueva_muestra_de_degradado_1"/><linearGradient id="Nueva_muestra_de_degradado_1-20" x1="-15.03" y1="6.31" x2="65.61" y2="7.03" xlink:href="#Nueva_muestra_de_degradado_1"/><linearGradient id="Nueva_muestra_de_degradado_1-21" x1="-14.97" y1="0.31" x2="65.67" y2="1.03" xlink:href="#Nueva_muestra_de_degradado_1"/><linearGradient id="Nueva_muestra_de_degradado_1-22" x1="-15.02" y1="5.9" x2="65.62" y2="6.62" xlink:href="#Nueva_muestra_de_degradado_1"/></defs><title>conceptual</title><g id="Capa_2" data-name="Capa 2"><g id="Propuesta1"><path class="cls-1" d="M45.29,18.29H3.62V3.86H45.29ZM5.23,16.68H43.68V5.47H5.23Z"/><path class="cls-2" d="M37.43,35.67H11.48V23.46h26ZM13.1,34.06H35.82v-9H13.1Z"/><path class="cls-3" d="M13.61,14.5H8V7.16h5.63Zm-4.82-.8h4V8h-4Z"/><path class="cls-4" d="M22.78,14.5H17.15V7.16h5.63ZM18,13.7h4V8H18Z"/><path class="cls-5" d="M31.91,14.5H26.28V7.16h5.63Zm-4.82-.8h4V8h-4Z"/><path class="cls-6" d="M41,14.5H35.41V7.16H41Zm-4.82-.8h4V8h-4Z"/><rect class="cls-7" x="16.21" y="27.25" width="1.61" height="5.07"/><rect class="cls-8" x="14.49" y="28.98" width="5.07" height="1.61"/><path class="cls-9" d="M31.46,27.82a.06.06,0,1,1-.06.06.06.06,0,0,1,.06-.06m0-.81a.87.87,0,1,0,0,1.73.87.87,0,0,0,0-1.73Z"/><path class="cls-10" d="M31.46,31.61a.07.07,0,1,1-.07.07.07.07,0,0,1,.07-.07m0-.81a.88.88,0,1,0,.88.88.87.87,0,0,0-.88-.88Z"/><path class="cls-11" d="M33.36,29.72a.06.06,0,0,1,.06.06.05.05,0,0,1-.06.06.06.06,0,0,1-.06-.06.06.06,0,0,1,.06-.06m0-.8a.87.87,0,1,0,.87.86.86.86,0,0,0-.87-.86Z"/><path class="cls-12" d="M29.55,29.73a.06.06,0,0,1,.06.05.06.06,0,1,1-.12,0,.06.06,0,0,1,.06-.05m0-.81a.87.87,0,1,0,.86.86.86.86,0,0,0-.86-.86Z"/><rect class="cls-13" x="21.4" y="29.85" width="2.11" height="0.81"/><rect class="cls-14" x="24.51" y="29.85" width="2.11" height="0.81"/><rect class="cls-15" x="7.72" y="30.64" width="1.61" height="5.3"/><rect class="cls-16" x="11.52" y="37.92" width="5.3" height="1.61"/><rect class="cls-17" x="32.19" y="37.92" width="5.3" height="1.61"/><rect class="cls-18" x="39.47" y="30.43" width="1.61" height="5.3"/><rect class="cls-19" x="3.59" width="5.3" height="1.61"/><rect class="cls-20" y="3.8" width="1.61" height="5.3"/><rect class="cls-21" x="40.03" y="0.01" width="5.3" height="1.61"/><rect class="cls-22" x="47.31" y="3.81" width="1.61" height="5.3"/></g></g></svg>