<svg xmlns="http://www.w3.org/2000/svg" xmlns:xlink="http://www.w3.org/1999/xlink" viewBox="0 0 50.88 35.54"><defs><style>.cls-1{fill:url(#Nueva_muestra_de_degradado_1);}.cls-2{fill:url(#Nueva_muestra_de_degradado_1-3);}.cls-3{fill:url(#Nueva_muestra_de_degradado_1-4);}.cls-4{fill:url(#Nueva_muestra_de_degradado_1-5);}.cls-5{fill:url(#Nueva_muestra_de_degradado_1-6);}.cls-6{fill:url(#Nueva_muestra_de_degradado_1-7);}</style><linearGradient id="Nueva_muestra_de_degradado_1" x1="-16.08" y1="7.08" x2="67.8" y2="7.08" gradientUnits="userSpaceOnUse"><stop offset="0" stop-color="#0f9"/><stop offset="0.1" stop-color="#01f99b"/><stop offset="0.24" stop-color="#05e7a2"/><stop offset="0.39" stop-color="#0acbae"/><stop offset="0.57" stop-color="#13a2be"/><stop offset="0.75" stop-color="#1d6fd3"/><stop offset="0.94" stop-color="#2931eb"/><stop offset="1" stop-color="#2d1ef3"/></linearGradient><linearGradient id="Nueva_muestra_de_degradado_1-3" x1="-16.08" y1="0.83" x2="67.8" y2="0.83" xlink:href="#Nueva_muestra_de_degradado_1"/><linearGradient id="Nueva_muestra_de_degradado_1-4" x1="-16.08" y1="24.88" x2="67.8" y2="24.88" xlink:href="#Nueva_muestra_de_degradado_1"/><linearGradient id="Nueva_muestra_de_degradado_1-5" x1="-16.08" y1="10.85" x2="67.77" y2="10.85" xlink:href="#Nueva_muestra_de_degradado_1"/><linearGradient id="Nueva_muestra_de_degradado_1-6" x1="-16.08" y1="30.19" x2="67.8" y2="30.19" xlink:href="#Nueva_muestra_de_degradado_1"/><linearGradient id="Nueva_muestra_de_degradado_1-7" x1="-16.08" y1="24.69" x2="67.8" y2="24.69" xlink:href="#Nueva_muestra_de_degradado_1"/></defs><title>packaging</title><g id="Capa_2" data-name="Capa 2"><g id="Propuesta1"><rect class="cls-1" x="49.21" y="4.19" width="1.67" height="5.78"/><rect class="cls-1" y="4.19" width="1.67" height="5.78"/><rect class="cls-2" x="6.11" width="38.66" height="1.67"/><path class="cls-3" d="M43.8,35.54H7.08V14.22H43.8ZM9.58,33H41.3V16.72H9.58Z"/><path class="cls-4" d="M46.4,16.72H4.47V5H46.4ZM7,14.22H43.9V7.48H7Z"/><rect class="cls-5" x="15.09" y="29.36" width="7.88" height="1.67"/><rect class="cls-6" x="11.59" y="21.05" width="1.67" height="7.27"/><rect class="cls-5" x="27.69" y="29.36" width="7.88" height="1.67"/><rect class="cls-6" x="37.4" y="21.05" width="1.67" height="7.27"/></g></g></svg>